# Caminhao 4 rodas - modelo simples para Three.js / React
# Unidades aproximadas: metros
mtllib caminhao_4_rodas.mtl
v -3.35000 -0.95000 0.78000
v 3.45000 -0.95000 0.78000
v 3.45000 0.95000 0.78000
v -3.35000 0.95000 0.78000
v -3.35000 -0.95000 1.02000
v 3.45000 -0.95000 1.02000
v 3.45000 0.95000 1.02000
v -3.35000 0.95000 1.02000
v -3.05000 -0.86000 1.05000
v -0.15000 -0.86000 1.05000
v -0.15000 0.86000 1.05000
v -3.05000 0.86000 1.05000
v -3.05000 -0.86000 2.35000
v -0.15000 -0.86000 2.35000
v -0.15000 0.86000 2.35000
v -3.05000 0.86000 2.35000
v -3.15000 -0.90000 2.35000
v -0.05000 -0.90000 2.35000
v -0.05000 0.90000 2.35000
v -3.15000 0.90000 2.35000
v -3.15000 -0.90000 2.48000
v -0.05000 -0.90000 2.48000
v -0.05000 0.90000 2.48000
v -3.15000 0.90000 2.48000
v 0.00000 -0.88000 1.02000
v 2.75000 -0.88000 1.02000
v 2.75000 0.88000 1.02000
v 0.00000 0.88000 1.02000
v 0.00000 -0.88000 2.05000
v 2.75000 -0.88000 2.05000
v 2.75000 0.88000 2.05000
v 0.00000 0.88000 2.05000
v 0.05000 -0.84000 2.05000
v 2.70000 -0.84000 2.05000
v 2.70000 0.84000 2.05000
v 0.05000 0.84000 2.05000
v 0.05000 -0.84000 2.18000
v 2.70000 -0.84000 2.18000
v 2.70000 0.84000 2.18000
v 0.05000 0.84000 2.18000
v 0.35000 -0.89500 1.48000
v 1.35000 -0.89500 1.48000
v 1.35000 -0.87500 1.48000
v 0.35000 -0.87500 1.48000
v 0.35000 -0.89500 1.90000
v 1.35000 -0.89500 1.90000
v 1.35000 -0.87500 1.90000
v 0.35000 -0.87500 1.90000
v 0.35000 0.87500 1.48000
v 1.35000 0.87500 1.48000
v 1.35000 0.89500 1.48000
v 0.35000 0.89500 1.48000
v 0.35000 0.87500 1.90000
v 1.35000 0.87500 1.90000
v 1.35000 0.89500 1.90000
v 0.35000 0.89500 1.90000
v 1.55000 -0.89500 1.48000
v 2.35000 -0.89500 1.48000
v 2.35000 -0.87500 1.48000
v 1.55000 -0.87500 1.48000
v 1.55000 -0.89500 1.90000
v 2.35000 -0.89500 1.90000
v 2.35000 -0.87500 1.90000
v 1.55000 -0.87500 1.90000
v 1.55000 0.87500 1.48000
v 2.35000 0.87500 1.48000
v 2.35000 0.89500 1.48000
v 1.55000 0.89500 1.48000
v 1.55000 0.87500 1.90000
v 2.35000 0.87500 1.90000
v 2.35000 0.89500 1.90000
v 1.55000 0.89500 1.90000
v 2.70000 -0.96000 0.72000
v 3.55000 -0.96000 0.72000
v 3.55000 0.96000 0.72000
v 2.70000 0.96000 0.72000
v 2.70000 -0.96000 1.00000
v 3.55000 -0.96000 1.00000
v 3.55000 0.96000 1.00000
v 2.70000 0.96000 1.00000
v 3.42000 -0.62000 1.12000
v 3.48000 -0.62000 1.12000
v 3.48000 0.62000 1.12000
v 3.42000 0.62000 1.12000
v 3.42000 -0.62000 1.55000
v 3.48000 -0.62000 1.55000
v 3.48000 0.62000 1.55000
v 3.42000 0.62000 1.55000
v 3.46000 -0.72000 1.42000
v 3.49000 -0.72000 1.42000
v 3.49000 -0.38000 1.42000
v 3.46000 -0.38000 1.42000
v 3.46000 -0.72000 1.64000
v 3.49000 -0.72000 1.64000
v 3.49000 -0.38000 1.64000
v 3.46000 -0.38000 1.64000
v 3.46000 0.38000 1.42000
v 3.49000 0.38000 1.42000
v 3.49000 0.72000 1.42000
v 3.46000 0.72000 1.42000
v 3.46000 0.38000 1.64000
v 3.49000 0.38000 1.64000
v 3.49000 0.72000 1.64000
v 3.46000 0.72000 1.64000
v 1.85000 -1.12000 1.78000
v 2.05000 -1.12000 1.78000
v 2.05000 -0.88000 1.78000
v 1.85000 -0.88000 1.78000
v 1.85000 -1.12000 1.95000
v 2.05000 -1.12000 1.95000
v 2.05000 -0.88000 1.95000
v 1.85000 -0.88000 1.95000
v 1.85000 0.88000 1.78000
v 2.05000 0.88000 1.78000
v 2.05000 1.12000 1.78000
v 1.85000 1.12000 1.78000
v 1.85000 0.88000 1.95000
v 2.05000 0.88000 1.95000
v 2.05000 1.12000 1.95000
v 1.85000 1.12000 1.95000
v 2.67000 -1.17000 1.02000
v 2.67000 -0.83000 1.02000
v 2.65446 -1.17000 1.15796
v 2.65446 -0.83000 1.15796
v 2.60860 -1.17000 1.28901
v 2.60860 -0.83000 1.28901
v 2.53474 -1.17000 1.40656
v 2.53474 -0.83000 1.40656
v 2.43656 -1.17000 1.50474
v 2.43656 -0.83000 1.50474
v 2.31901 -1.17000 1.57860
v 2.31901 -0.83000 1.57860
v 2.18796 -1.17000 1.62446
v 2.18796 -0.83000 1.62446
v 2.05000 -1.17000 1.64000
v 2.05000 -0.83000 1.64000
v 1.91204 -1.17000 1.62446
v 1.91204 -0.83000 1.62446
v 1.78099 -1.17000 1.57860
v 1.78099 -0.83000 1.57860
v 1.66344 -1.17000 1.50474
v 1.66344 -0.83000 1.50474
v 1.56526 -1.17000 1.40656
v 1.56526 -0.83000 1.40656
v 1.49140 -1.17000 1.28901
v 1.49140 -0.83000 1.28901
v 1.44554 -1.17000 1.15796
v 1.44554 -0.83000 1.15796
v 1.43000 -1.17000 1.02000
v 1.43000 -0.83000 1.02000
v 1.44554 -1.17000 0.88204
v 1.44554 -0.83000 0.88204
v 1.49140 -1.17000 0.75099
v 1.49140 -0.83000 0.75099
v 1.56526 -1.17000 0.63344
v 1.56526 -0.83000 0.63344
v 1.66344 -1.17000 0.53526
v 1.66344 -0.83000 0.53526
v 1.78099 -1.17000 0.46140
v 1.78099 -0.83000 0.46140
v 1.91204 -1.17000 0.41554
v 1.91204 -0.83000 0.41554
v 2.05000 -1.17000 0.40000
v 2.05000 -0.83000 0.40000
v 2.18796 -1.17000 0.41554
v 2.18796 -0.83000 0.41554
v 2.31901 -1.17000 0.46140
v 2.31901 -0.83000 0.46140
v 2.43656 -1.17000 0.53526
v 2.43656 -0.83000 0.53526
v 2.53474 -1.17000 0.63344
v 2.53474 -0.83000 0.63344
v 2.60860 -1.17000 0.75099
v 2.60860 -0.83000 0.75099
v 2.65446 -1.17000 0.88204
v 2.65446 -0.83000 0.88204
v 2.05000 -1.17000 1.02000
v 2.05000 -0.83000 1.02000
v 2.28000 -1.18500 1.02000
v 2.28000 -0.81500 1.02000
v 2.26874 -1.18500 1.09107
v 2.26874 -0.81500 1.09107
v 2.23607 -1.18500 1.15519
v 2.23607 -0.81500 1.15519
v 2.18519 -1.18500 1.20607
v 2.18519 -0.81500 1.20607
v 2.12107 -1.18500 1.23874
v 2.12107 -0.81500 1.23874
v 2.05000 -1.18500 1.25000
v 2.05000 -0.81500 1.25000
v 1.97893 -1.18500 1.23874
v 1.97893 -0.81500 1.23874
v 1.91481 -1.18500 1.20607
v 1.91481 -0.81500 1.20607
v 1.86393 -1.18500 1.15519
v 1.86393 -0.81500 1.15519
v 1.83126 -1.18500 1.09107
v 1.83126 -0.81500 1.09107
v 1.82000 -1.18500 1.02000
v 1.82000 -0.81500 1.02000
v 1.83126 -1.18500 0.94893
v 1.83126 -0.81500 0.94893
v 1.86393 -1.18500 0.88481
v 1.86393 -0.81500 0.88481
v 1.91481 -1.18500 0.83393
v 1.91481 -0.81500 0.83393
v 1.97893 -1.18500 0.80126
v 1.97893 -0.81500 0.80126
v 2.05000 -1.18500 0.79000
v 2.05000 -0.81500 0.79000
v 2.12107 -1.18500 0.80126
v 2.12107 -0.81500 0.80126
v 2.18519 -1.18500 0.83393
v 2.18519 -0.81500 0.83393
v 2.23607 -1.18500 0.88481
v 2.23607 -0.81500 0.88481
v 2.26874 -1.18500 0.94893
v 2.26874 -0.81500 0.94893
v 2.05000 -1.18500 1.02000
v 2.05000 -0.81500 1.02000
v 2.67000 0.83000 1.02000
v 2.67000 1.17000 1.02000
v 2.65446 0.83000 1.15796
v 2.65446 1.17000 1.15796
v 2.60860 0.83000 1.28901
v 2.60860 1.17000 1.28901
v 2.53474 0.83000 1.40656
v 2.53474 1.17000 1.40656
v 2.43656 0.83000 1.50474
v 2.43656 1.17000 1.50474
v 2.31901 0.83000 1.57860
v 2.31901 1.17000 1.57860
v 2.18796 0.83000 1.62446
v 2.18796 1.17000 1.62446
v 2.05000 0.83000 1.64000
v 2.05000 1.17000 1.64000
v 1.91204 0.83000 1.62446
v 1.91204 1.17000 1.62446
v 1.78099 0.83000 1.57860
v 1.78099 1.17000 1.57860
v 1.66344 0.83000 1.50474
v 1.66344 1.17000 1.50474
v 1.56526 0.83000 1.40656
v 1.56526 1.17000 1.40656
v 1.49140 0.83000 1.28901
v 1.49140 1.17000 1.28901
v 1.44554 0.83000 1.15796
v 1.44554 1.17000 1.15796
v 1.43000 0.83000 1.02000
v 1.43000 1.17000 1.02000
v 1.44554 0.83000 0.88204
v 1.44554 1.17000 0.88204
v 1.49140 0.83000 0.75099
v 1.49140 1.17000 0.75099
v 1.56526 0.83000 0.63344
v 1.56526 1.17000 0.63344
v 1.66344 0.83000 0.53526
v 1.66344 1.17000 0.53526
v 1.78099 0.83000 0.46140
v 1.78099 1.17000 0.46140
v 1.91204 0.83000 0.41554
v 1.91204 1.17000 0.41554
v 2.05000 0.83000 0.40000
v 2.05000 1.17000 0.40000
v 2.18796 0.83000 0.41554
v 2.18796 1.17000 0.41554
v 2.31901 0.83000 0.46140
v 2.31901 1.17000 0.46140
v 2.43656 0.83000 0.53526
v 2.43656 1.17000 0.53526
v 2.53474 0.83000 0.63344
v 2.53474 1.17000 0.63344
v 2.60860 0.83000 0.75099
v 2.60860 1.17000 0.75099
v 2.65446 0.83000 0.88204
v 2.65446 1.17000 0.88204
v 2.05000 0.83000 1.02000
v 2.05000 1.17000 1.02000
v 2.28000 0.81500 1.02000
v 2.28000 1.18500 1.02000
v 2.26874 0.81500 1.09107
v 2.26874 1.18500 1.09107
v 2.23607 0.81500 1.15519
v 2.23607 1.18500 1.15519
v 2.18519 0.81500 1.20607
v 2.18519 1.18500 1.20607
v 2.12107 0.81500 1.23874
v 2.12107 1.18500 1.23874
v 2.05000 0.81500 1.25000
v 2.05000 1.18500 1.25000
v 1.97893 0.81500 1.23874
v 1.97893 1.18500 1.23874
v 1.91481 0.81500 1.20607
v 1.91481 1.18500 1.20607
v 1.86393 0.81500 1.15519
v 1.86393 1.18500 1.15519
v 1.83126 0.81500 1.09107
v 1.83126 1.18500 1.09107
v 1.82000 0.81500 1.02000
v 1.82000 1.18500 1.02000
v 1.83126 0.81500 0.94893
v 1.83126 1.18500 0.94893
v 1.86393 0.81500 0.88481
v 1.86393 1.18500 0.88481
v 1.91481 0.81500 0.83393
v 1.91481 1.18500 0.83393
v 1.97893 0.81500 0.80126
v 1.97893 1.18500 0.80126
v 2.05000 0.81500 0.79000
v 2.05000 1.18500 0.79000
v 2.12107 0.81500 0.80126
v 2.12107 1.18500 0.80126
v 2.18519 0.81500 0.83393
v 2.18519 1.18500 0.83393
v 2.23607 0.81500 0.88481
v 2.23607 1.18500 0.88481
v 2.26874 0.81500 0.94893
v 2.26874 1.18500 0.94893
v 2.05000 0.81500 1.02000
v 2.05000 1.18500 1.02000
v -1.43000 -1.17000 1.02000
v -1.43000 -0.83000 1.02000
v -1.44554 -1.17000 1.15796
v -1.44554 -0.83000 1.15796
v -1.49140 -1.17000 1.28901
v -1.49140 -0.83000 1.28901
v -1.56526 -1.17000 1.40656
v -1.56526 -0.83000 1.40656
v -1.66344 -1.17000 1.50474
v -1.66344 -0.83000 1.50474
v -1.78099 -1.17000 1.57860
v -1.78099 -0.83000 1.57860
v -1.91204 -1.17000 1.62446
v -1.91204 -0.83000 1.62446
v -2.05000 -1.17000 1.64000
v -2.05000 -0.83000 1.64000
v -2.18796 -1.17000 1.62446
v -2.18796 -0.83000 1.62446
v -2.31901 -1.17000 1.57860
v -2.31901 -0.83000 1.57860
v -2.43656 -1.17000 1.50474
v -2.43656 -0.83000 1.50474
v -2.53474 -1.17000 1.40656
v -2.53474 -0.83000 1.40656
v -2.60860 -1.17000 1.28901
v -2.60860 -0.83000 1.28901
v -2.65446 -1.17000 1.15796
v -2.65446 -0.83000 1.15796
v -2.67000 -1.17000 1.02000
v -2.67000 -0.83000 1.02000
v -2.65446 -1.17000 0.88204
v -2.65446 -0.83000 0.88204
v -2.60860 -1.17000 0.75099
v -2.60860 -0.83000 0.75099
v -2.53474 -1.17000 0.63344
v -2.53474 -0.83000 0.63344
v -2.43656 -1.17000 0.53526
v -2.43656 -0.83000 0.53526
v -2.31901 -1.17000 0.46140
v -2.31901 -0.83000 0.46140
v -2.18796 -1.17000 0.41554
v -2.18796 -0.83000 0.41554
v -2.05000 -1.17000 0.40000
v -2.05000 -0.83000 0.40000
v -1.91204 -1.17000 0.41554
v -1.91204 -0.83000 0.41554
v -1.78099 -1.17000 0.46140
v -1.78099 -0.83000 0.46140
v -1.66344 -1.17000 0.53526
v -1.66344 -0.83000 0.53526
v -1.56526 -1.17000 0.63344
v -1.56526 -0.83000 0.63344
v -1.49140 -1.17000 0.75099
v -1.49140 -0.83000 0.75099
v -1.44554 -1.17000 0.88204
v -1.44554 -0.83000 0.88204
v -2.05000 -1.17000 1.02000
v -2.05000 -0.83000 1.02000
v -1.82000 -1.18500 1.02000
v -1.82000 -0.81500 1.02000
v -1.83126 -1.18500 1.09107
v -1.83126 -0.81500 1.09107
v -1.86393 -1.18500 1.15519
v -1.86393 -0.81500 1.15519
v -1.91481 -1.18500 1.20607
v -1.91481 -0.81500 1.20607
v -1.97893 -1.18500 1.23874
v -1.97893 -0.81500 1.23874
v -2.05000 -1.18500 1.25000
v -2.05000 -0.81500 1.25000
v -2.12107 -1.18500 1.23874
v -2.12107 -0.81500 1.23874
v -2.18519 -1.18500 1.20607
v -2.18519 -0.81500 1.20607
v -2.23607 -1.18500 1.15519
v -2.23607 -0.81500 1.15519
v -2.26874 -1.18500 1.09107
v -2.26874 -0.81500 1.09107
v -2.28000 -1.18500 1.02000
v -2.28000 -0.81500 1.02000
v -2.26874 -1.18500 0.94893
v -2.26874 -0.81500 0.94893
v -2.23607 -1.18500 0.88481
v -2.23607 -0.81500 0.88481
v -2.18519 -1.18500 0.83393
v -2.18519 -0.81500 0.83393
v -2.12107 -1.18500 0.80126
v -2.12107 -0.81500 0.80126
v -2.05000 -1.18500 0.79000
v -2.05000 -0.81500 0.79000
v -1.97893 -1.18500 0.80126
v -1.97893 -0.81500 0.80126
v -1.91481 -1.18500 0.83393
v -1.91481 -0.81500 0.83393
v -1.86393 -1.18500 0.88481
v -1.86393 -0.81500 0.88481
v -1.83126 -1.18500 0.94893
v -1.83126 -0.81500 0.94893
v -2.05000 -1.18500 1.02000
v -2.05000 -0.81500 1.02000
v -1.43000 0.83000 1.02000
v -1.43000 1.17000 1.02000
v -1.44554 0.83000 1.15796
v -1.44554 1.17000 1.15796
v -1.49140 0.83000 1.28901
v -1.49140 1.17000 1.28901
v -1.56526 0.83000 1.40656
v -1.56526 1.17000 1.40656
v -1.66344 0.83000 1.50474
v -1.66344 1.17000 1.50474
v -1.78099 0.83000 1.57860
v -1.78099 1.17000 1.57860
v -1.91204 0.83000 1.62446
v -1.91204 1.17000 1.62446
v -2.05000 0.83000 1.64000
v -2.05000 1.17000 1.64000
v -2.18796 0.83000 1.62446
v -2.18796 1.17000 1.62446
v -2.31901 0.83000 1.57860
v -2.31901 1.17000 1.57860
v -2.43656 0.83000 1.50474
v -2.43656 1.17000 1.50474
v -2.53474 0.83000 1.40656
v -2.53474 1.17000 1.40656
v -2.60860 0.83000 1.28901
v -2.60860 1.17000 1.28901
v -2.65446 0.83000 1.15796
v -2.65446 1.17000 1.15796
v -2.67000 0.83000 1.02000
v -2.67000 1.17000 1.02000
v -2.65446 0.83000 0.88204
v -2.65446 1.17000 0.88204
v -2.60860 0.83000 0.75099
v -2.60860 1.17000 0.75099
v -2.53474 0.83000 0.63344
v -2.53474 1.17000 0.63344
v -2.43656 0.83000 0.53526
v -2.43656 1.17000 0.53526
v -2.31901 0.83000 0.46140
v -2.31901 1.17000 0.46140
v -2.18796 0.83000 0.41554
v -2.18796 1.17000 0.41554
v -2.05000 0.83000 0.40000
v -2.05000 1.17000 0.40000
v -1.91204 0.83000 0.41554
v -1.91204 1.17000 0.41554
v -1.78099 0.83000 0.46140
v -1.78099 1.17000 0.46140
v -1.66344 0.83000 0.53526
v -1.66344 1.17000 0.53526
v -1.56526 0.83000 0.63344
v -1.56526 1.17000 0.63344
v -1.49140 0.83000 0.75099
v -1.49140 1.17000 0.75099
v -1.44554 0.83000 0.88204
v -1.44554 1.17000 0.88204
v -2.05000 0.83000 1.02000
v -2.05000 1.17000 1.02000
v -1.82000 0.81500 1.02000
v -1.82000 1.18500 1.02000
v -1.83126 0.81500 1.09107
v -1.83126 1.18500 1.09107
v -1.86393 0.81500 1.15519
v -1.86393 1.18500 1.15519
v -1.91481 0.81500 1.20607
v -1.91481 1.18500 1.20607
v -1.97893 0.81500 1.23874
v -1.97893 1.18500 1.23874
v -2.05000 0.81500 1.25000
v -2.05000 1.18500 1.25000
v -2.12107 0.81500 1.23874
v -2.12107 1.18500 1.23874
v -2.18519 0.81500 1.20607
v -2.18519 1.18500 1.20607
v -2.23607 0.81500 1.15519
v -2.23607 1.18500 1.15519
v -2.26874 0.81500 1.09107
v -2.26874 1.18500 1.09107
v -2.28000 0.81500 1.02000
v -2.28000 1.18500 1.02000
v -2.26874 0.81500 0.94893
v -2.26874 1.18500 0.94893
v -2.23607 0.81500 0.88481
v -2.23607 1.18500 0.88481
v -2.18519 0.81500 0.83393
v -2.18519 1.18500 0.83393
v -2.12107 0.81500 0.80126
v -2.12107 1.18500 0.80126
v -2.05000 0.81500 0.79000
v -2.05000 1.18500 0.79000
v -1.97893 0.81500 0.80126
v -1.97893 1.18500 0.80126
v -1.91481 0.81500 0.83393
v -1.91481 1.18500 0.83393
v -1.86393 0.81500 0.88481
v -1.86393 1.18500 0.88481
v -1.83126 0.81500 0.94893
v -1.83126 1.18500 0.94893
v -2.05000 0.81500 1.02000
v -2.05000 1.18500 1.02000
g chassis
usemtl chassis
f 1 2 3 4
usemtl chassis
f 5 8 7 6
usemtl chassis
f 1 5 6 2
usemtl chassis
f 2 6 7 3
usemtl chassis
f 3 7 8 4
usemtl chassis
f 5 1 4 8
g cargo
usemtl cargo
f 9 10 11 12
usemtl cargo
f 13 16 15 14
usemtl cargo
f 9 13 14 10
usemtl cargo
f 10 14 15 11
usemtl cargo
f 11 15 16 12
usemtl cargo
f 13 9 12 16
usemtl truck
f 17 18 19 20
usemtl truck
f 21 24 23 22
usemtl truck
f 17 21 22 18
usemtl truck
f 18 22 23 19
usemtl truck
f 19 23 24 20
usemtl truck
f 21 17 20 24
g cab
usemtl truck
f 25 26 27 28
usemtl truck
f 29 32 31 30
usemtl truck
f 25 29 30 26
usemtl truck
f 26 30 31 27
usemtl truck
f 27 31 32 28
usemtl truck
f 29 25 28 32
usemtl truck
f 33 34 35 36
usemtl truck
f 37 40 39 38
usemtl truck
f 33 37 38 34
usemtl truck
f 34 38 39 35
usemtl truck
f 35 39 40 36
usemtl truck
f 37 33 36 40
g windows
usemtl glass
f 41 42 43 44
usemtl glass
f 45 48 47 46
usemtl glass
f 41 45 46 42
usemtl glass
f 42 46 47 43
usemtl glass
f 43 47 48 44
usemtl glass
f 45 41 44 48
usemtl glass
f 49 50 51 52
usemtl glass
f 53 56 55 54
usemtl glass
f 49 53 54 50
usemtl glass
f 50 54 55 51
usemtl glass
f 51 55 56 52
usemtl glass
f 53 49 52 56
usemtl glass
f 57 58 59 60
usemtl glass
f 61 64 63 62
usemtl glass
f 57 61 62 58
usemtl glass
f 58 62 63 59
usemtl glass
f 59 63 64 60
usemtl glass
f 61 57 60 64
usemtl glass
f 65 66 67 68
usemtl glass
f 69 72 71 70
usemtl glass
f 65 69 70 66
usemtl glass
f 66 70 71 67
usemtl glass
f 67 71 72 68
usemtl glass
f 69 65 68 72
g front_details
usemtl bumper
f 73 74 75 76
usemtl bumper
f 77 80 79 78
usemtl bumper
f 73 77 78 74
usemtl bumper
f 74 78 79 75
usemtl bumper
f 75 79 80 76
usemtl bumper
f 77 73 76 80
usemtl grille
f 81 82 83 84
usemtl grille
f 85 88 87 86
usemtl grille
f 81 85 86 82
usemtl grille
f 82 86 87 83
usemtl grille
f 83 87 88 84
usemtl grille
f 85 81 84 88
usemtl light
f 89 90 91 92
usemtl light
f 93 96 95 94
usemtl light
f 89 93 94 90
usemtl light
f 90 94 95 91
usemtl light
f 91 95 96 92
usemtl light
f 93 89 92 96
usemtl light
f 97 98 99 100
usemtl light
f 101 104 103 102
usemtl light
f 97 101 102 98
usemtl light
f 98 102 103 99
usemtl light
f 99 103 104 100
usemtl light
f 101 97 100 104
usemtl mirror
f 105 106 107 108
usemtl mirror
f 109 112 111 110
usemtl mirror
f 105 109 110 106
usemtl mirror
f 106 110 111 107
usemtl mirror
f 107 111 112 108
usemtl mirror
f 109 105 108 112
usemtl mirror
f 113 114 115 116
usemtl mirror
f 117 120 119 118
usemtl mirror
f 113 117 118 114
usemtl mirror
f 114 118 119 115
usemtl mirror
f 115 119 120 116
usemtl mirror
f 117 113 116 120
g wheel_front_left
usemtl tire
f 121 123 124 122
usemtl tire
f 123 125 126 124
usemtl tire
f 125 127 128 126
usemtl tire
f 127 129 130 128
usemtl tire
f 129 131 132 130
usemtl tire
f 131 133 134 132
usemtl tire
f 133 135 136 134
usemtl tire
f 135 137 138 136
usemtl tire
f 137 139 140 138
usemtl tire
f 139 141 142 140
usemtl tire
f 141 143 144 142
usemtl tire
f 143 145 146 144
usemtl tire
f 145 147 148 146
usemtl tire
f 147 149 150 148
usemtl tire
f 149 151 152 150
usemtl tire
f 151 153 154 152
usemtl tire
f 153 155 156 154
usemtl tire
f 155 157 158 156
usemtl tire
f 157 159 160 158
usemtl tire
f 159 161 162 160
usemtl tire
f 161 163 164 162
usemtl tire
f 163 165 166 164
usemtl tire
f 165 167 168 166
usemtl tire
f 167 169 170 168
usemtl tire
f 169 171 172 170
usemtl tire
f 171 173 174 172
usemtl tire
f 173 175 176 174
usemtl tire
f 175 121 122 176
usemtl tire
f 177 123 121
usemtl tire
f 178 122 124
usemtl tire
f 177 125 123
usemtl tire
f 178 124 126
usemtl tire
f 177 127 125
usemtl tire
f 178 126 128
usemtl tire
f 177 129 127
usemtl tire
f 178 128 130
usemtl tire
f 177 131 129
usemtl tire
f 178 130 132
usemtl tire
f 177 133 131
usemtl tire
f 178 132 134
usemtl tire
f 177 135 133
usemtl tire
f 178 134 136
usemtl tire
f 177 137 135
usemtl tire
f 178 136 138
usemtl tire
f 177 139 137
usemtl tire
f 178 138 140
usemtl tire
f 177 141 139
usemtl tire
f 178 140 142
usemtl tire
f 177 143 141
usemtl tire
f 178 142 144
usemtl tire
f 177 145 143
usemtl tire
f 178 144 146
usemtl tire
f 177 147 145
usemtl tire
f 178 146 148
usemtl tire
f 177 149 147
usemtl tire
f 178 148 150
usemtl tire
f 177 151 149
usemtl tire
f 178 150 152
usemtl tire
f 177 153 151
usemtl tire
f 178 152 154
usemtl tire
f 177 155 153
usemtl tire
f 178 154 156
usemtl tire
f 177 157 155
usemtl tire
f 178 156 158
usemtl tire
f 177 159 157
usemtl tire
f 178 158 160
usemtl tire
f 177 161 159
usemtl tire
f 178 160 162
usemtl tire
f 177 163 161
usemtl tire
f 178 162 164
usemtl tire
f 177 165 163
usemtl tire
f 178 164 166
usemtl tire
f 177 167 165
usemtl tire
f 178 166 168
usemtl tire
f 177 169 167
usemtl tire
f 178 168 170
usemtl tire
f 177 171 169
usemtl tire
f 178 170 172
usemtl tire
f 177 173 171
usemtl tire
f 178 172 174
usemtl tire
f 177 175 173
usemtl tire
f 178 174 176
usemtl tire
f 177 121 175
usemtl tire
f 178 176 122
usemtl hub
f 179 181 182 180
usemtl hub
f 181 183 184 182
usemtl hub
f 183 185 186 184
usemtl hub
f 185 187 188 186
usemtl hub
f 187 189 190 188
usemtl hub
f 189 191 192 190
usemtl hub
f 191 193 194 192
usemtl hub
f 193 195 196 194
usemtl hub
f 195 197 198 196
usemtl hub
f 197 199 200 198
usemtl hub
f 199 201 202 200
usemtl hub
f 201 203 204 202
usemtl hub
f 203 205 206 204
usemtl hub
f 205 207 208 206
usemtl hub
f 207 209 210 208
usemtl hub
f 209 211 212 210
usemtl hub
f 211 213 214 212
usemtl hub
f 213 215 216 214
usemtl hub
f 215 217 218 216
usemtl hub
f 217 179 180 218
usemtl hub
f 219 181 179
usemtl hub
f 220 180 182
usemtl hub
f 219 183 181
usemtl hub
f 220 182 184
usemtl hub
f 219 185 183
usemtl hub
f 220 184 186
usemtl hub
f 219 187 185
usemtl hub
f 220 186 188
usemtl hub
f 219 189 187
usemtl hub
f 220 188 190
usemtl hub
f 219 191 189
usemtl hub
f 220 190 192
usemtl hub
f 219 193 191
usemtl hub
f 220 192 194
usemtl hub
f 219 195 193
usemtl hub
f 220 194 196
usemtl hub
f 219 197 195
usemtl hub
f 220 196 198
usemtl hub
f 219 199 197
usemtl hub
f 220 198 200
usemtl hub
f 219 201 199
usemtl hub
f 220 200 202
usemtl hub
f 219 203 201
usemtl hub
f 220 202 204
usemtl hub
f 219 205 203
usemtl hub
f 220 204 206
usemtl hub
f 219 207 205
usemtl hub
f 220 206 208
usemtl hub
f 219 209 207
usemtl hub
f 220 208 210
usemtl hub
f 219 211 209
usemtl hub
f 220 210 212
usemtl hub
f 219 213 211
usemtl hub
f 220 212 214
usemtl hub
f 219 215 213
usemtl hub
f 220 214 216
usemtl hub
f 219 217 215
usemtl hub
f 220 216 218
usemtl hub
f 219 179 217
usemtl hub
f 220 218 180
g wheel_front_right
usemtl tire
f 221 223 224 222
usemtl tire
f 223 225 226 224
usemtl tire
f 225 227 228 226
usemtl tire
f 227 229 230 228
usemtl tire
f 229 231 232 230
usemtl tire
f 231 233 234 232
usemtl tire
f 233 235 236 234
usemtl tire
f 235 237 238 236
usemtl tire
f 237 239 240 238
usemtl tire
f 239 241 242 240
usemtl tire
f 241 243 244 242
usemtl tire
f 243 245 246 244
usemtl tire
f 245 247 248 246
usemtl tire
f 247 249 250 248
usemtl tire
f 249 251 252 250
usemtl tire
f 251 253 254 252
usemtl tire
f 253 255 256 254
usemtl tire
f 255 257 258 256
usemtl tire
f 257 259 260 258
usemtl tire
f 259 261 262 260
usemtl tire
f 261 263 264 262
usemtl tire
f 263 265 266 264
usemtl tire
f 265 267 268 266
usemtl tire
f 267 269 270 268
usemtl tire
f 269 271 272 270
usemtl tire
f 271 273 274 272
usemtl tire
f 273 275 276 274
usemtl tire
f 275 221 222 276
usemtl tire
f 277 223 221
usemtl tire
f 278 222 224
usemtl tire
f 277 225 223
usemtl tire
f 278 224 226
usemtl tire
f 277 227 225
usemtl tire
f 278 226 228
usemtl tire
f 277 229 227
usemtl tire
f 278 228 230
usemtl tire
f 277 231 229
usemtl tire
f 278 230 232
usemtl tire
f 277 233 231
usemtl tire
f 278 232 234
usemtl tire
f 277 235 233
usemtl tire
f 278 234 236
usemtl tire
f 277 237 235
usemtl tire
f 278 236 238
usemtl tire
f 277 239 237
usemtl tire
f 278 238 240
usemtl tire
f 277 241 239
usemtl tire
f 278 240 242
usemtl tire
f 277 243 241
usemtl tire
f 278 242 244
usemtl tire
f 277 245 243
usemtl tire
f 278 244 246
usemtl tire
f 277 247 245
usemtl tire
f 278 246 248
usemtl tire
f 277 249 247
usemtl tire
f 278 248 250
usemtl tire
f 277 251 249
usemtl tire
f 278 250 252
usemtl tire
f 277 253 251
usemtl tire
f 278 252 254
usemtl tire
f 277 255 253
usemtl tire
f 278 254 256
usemtl tire
f 277 257 255
usemtl tire
f 278 256 258
usemtl tire
f 277 259 257
usemtl tire
f 278 258 260
usemtl tire
f 277 261 259
usemtl tire
f 278 260 262
usemtl tire
f 277 263 261
usemtl tire
f 278 262 264
usemtl tire
f 277 265 263
usemtl tire
f 278 264 266
usemtl tire
f 277 267 265
usemtl tire
f 278 266 268
usemtl tire
f 277 269 267
usemtl tire
f 278 268 270
usemtl tire
f 277 271 269
usemtl tire
f 278 270 272
usemtl tire
f 277 273 271
usemtl tire
f 278 272 274
usemtl tire
f 277 275 273
usemtl tire
f 278 274 276
usemtl tire
f 277 221 275
usemtl tire
f 278 276 222
usemtl hub
f 279 281 282 280
usemtl hub
f 281 283 284 282
usemtl hub
f 283 285 286 284
usemtl hub
f 285 287 288 286
usemtl hub
f 287 289 290 288
usemtl hub
f 289 291 292 290
usemtl hub
f 291 293 294 292
usemtl hub
f 293 295 296 294
usemtl hub
f 295 297 298 296
usemtl hub
f 297 299 300 298
usemtl hub
f 299 301 302 300
usemtl hub
f 301 303 304 302
usemtl hub
f 303 305 306 304
usemtl hub
f 305 307 308 306
usemtl hub
f 307 309 310 308
usemtl hub
f 309 311 312 310
usemtl hub
f 311 313 314 312
usemtl hub
f 313 315 316 314
usemtl hub
f 315 317 318 316
usemtl hub
f 317 279 280 318
usemtl hub
f 319 281 279
usemtl hub
f 320 280 282
usemtl hub
f 319 283 281
usemtl hub
f 320 282 284
usemtl hub
f 319 285 283
usemtl hub
f 320 284 286
usemtl hub
f 319 287 285
usemtl hub
f 320 286 288
usemtl hub
f 319 289 287
usemtl hub
f 320 288 290
usemtl hub
f 319 291 289
usemtl hub
f 320 290 292
usemtl hub
f 319 293 291
usemtl hub
f 320 292 294
usemtl hub
f 319 295 293
usemtl hub
f 320 294 296
usemtl hub
f 319 297 295
usemtl hub
f 320 296 298
usemtl hub
f 319 299 297
usemtl hub
f 320 298 300
usemtl hub
f 319 301 299
usemtl hub
f 320 300 302
usemtl hub
f 319 303 301
usemtl hub
f 320 302 304
usemtl hub
f 319 305 303
usemtl hub
f 320 304 306
usemtl hub
f 319 307 305
usemtl hub
f 320 306 308
usemtl hub
f 319 309 307
usemtl hub
f 320 308 310
usemtl hub
f 319 311 309
usemtl hub
f 320 310 312
usemtl hub
f 319 313 311
usemtl hub
f 320 312 314
usemtl hub
f 319 315 313
usemtl hub
f 320 314 316
usemtl hub
f 319 317 315
usemtl hub
f 320 316 318
usemtl hub
f 319 279 317
usemtl hub
f 320 318 280
g wheel_rear_left
usemtl tire
f 321 323 324 322
usemtl tire
f 323 325 326 324
usemtl tire
f 325 327 328 326
usemtl tire
f 327 329 330 328
usemtl tire
f 329 331 332 330
usemtl tire
f 331 333 334 332
usemtl tire
f 333 335 336 334
usemtl tire
f 335 337 338 336
usemtl tire
f 337 339 340 338
usemtl tire
f 339 341 342 340
usemtl tire
f 341 343 344 342
usemtl tire
f 343 345 346 344
usemtl tire
f 345 347 348 346
usemtl tire
f 347 349 350 348
usemtl tire
f 349 351 352 350
usemtl tire
f 351 353 354 352
usemtl tire
f 353 355 356 354
usemtl tire
f 355 357 358 356
usemtl tire
f 357 359 360 358
usemtl tire
f 359 361 362 360
usemtl tire
f 361 363 364 362
usemtl tire
f 363 365 366 364
usemtl tire
f 365 367 368 366
usemtl tire
f 367 369 370 368
usemtl tire
f 369 371 372 370
usemtl tire
f 371 373 374 372
usemtl tire
f 373 375 376 374
usemtl tire
f 375 321 322 376
usemtl tire
f 377 323 321
usemtl tire
f 378 322 324
usemtl tire
f 377 325 323
usemtl tire
f 378 324 326
usemtl tire
f 377 327 325
usemtl tire
f 378 326 328
usemtl tire
f 377 329 327
usemtl tire
f 378 328 330
usemtl tire
f 377 331 329
usemtl tire
f 378 330 332
usemtl tire
f 377 333 331
usemtl tire
f 378 332 334
usemtl tire
f 377 335 333
usemtl tire
f 378 334 336
usemtl tire
f 377 337 335
usemtl tire
f 378 336 338
usemtl tire
f 377 339 337
usemtl tire
f 378 338 340
usemtl tire
f 377 341 339
usemtl tire
f 378 340 342
usemtl tire
f 377 343 341
usemtl tire
f 378 342 344
usemtl tire
f 377 345 343
usemtl tire
f 378 344 346
usemtl tire
f 377 347 345
usemtl tire
f 378 346 348
usemtl tire
f 377 349 347
usemtl tire
f 378 348 350
usemtl tire
f 377 351 349
usemtl tire
f 378 350 352
usemtl tire
f 377 353 351
usemtl tire
f 378 352 354
usemtl tire
f 377 355 353
usemtl tire
f 378 354 356
usemtl tire
f 377 357 355
usemtl tire
f 378 356 358
usemtl tire
f 377 359 357
usemtl tire
f 378 358 360
usemtl tire
f 377 361 359
usemtl tire
f 378 360 362
usemtl tire
f 377 363 361
usemtl tire
f 378 362 364
usemtl tire
f 377 365 363
usemtl tire
f 378 364 366
usemtl tire
f 377 367 365
usemtl tire
f 378 366 368
usemtl tire
f 377 369 367
usemtl tire
f 378 368 370
usemtl tire
f 377 371 369
usemtl tire
f 378 370 372
usemtl tire
f 377 373 371
usemtl tire
f 378 372 374
usemtl tire
f 377 375 373
usemtl tire
f 378 374 376
usemtl tire
f 377 321 375
usemtl tire
f 378 376 322
usemtl hub
f 379 381 382 380
usemtl hub
f 381 383 384 382
usemtl hub
f 383 385 386 384
usemtl hub
f 385 387 388 386
usemtl hub
f 387 389 390 388
usemtl hub
f 389 391 392 390
usemtl hub
f 391 393 394 392
usemtl hub
f 393 395 396 394
usemtl hub
f 395 397 398 396
usemtl hub
f 397 399 400 398
usemtl hub
f 399 401 402 400
usemtl hub
f 401 403 404 402
usemtl hub
f 403 405 406 404
usemtl hub
f 405 407 408 406
usemtl hub
f 407 409 410 408
usemtl hub
f 409 411 412 410
usemtl hub
f 411 413 414 412
usemtl hub
f 413 415 416 414
usemtl hub
f 415 417 418 416
usemtl hub
f 417 379 380 418
usemtl hub
f 419 381 379
usemtl hub
f 420 380 382
usemtl hub
f 419 383 381
usemtl hub
f 420 382 384
usemtl hub
f 419 385 383
usemtl hub
f 420 384 386
usemtl hub
f 419 387 385
usemtl hub
f 420 386 388
usemtl hub
f 419 389 387
usemtl hub
f 420 388 390
usemtl hub
f 419 391 389
usemtl hub
f 420 390 392
usemtl hub
f 419 393 391
usemtl hub
f 420 392 394
usemtl hub
f 419 395 393
usemtl hub
f 420 394 396
usemtl hub
f 419 397 395
usemtl hub
f 420 396 398
usemtl hub
f 419 399 397
usemtl hub
f 420 398 400
usemtl hub
f 419 401 399
usemtl hub
f 420 400 402
usemtl hub
f 419 403 401
usemtl hub
f 420 402 404
usemtl hub
f 419 405 403
usemtl hub
f 420 404 406
usemtl hub
f 419 407 405
usemtl hub
f 420 406 408
usemtl hub
f 419 409 407
usemtl hub
f 420 408 410
usemtl hub
f 419 411 409
usemtl hub
f 420 410 412
usemtl hub
f 419 413 411
usemtl hub
f 420 412 414
usemtl hub
f 419 415 413
usemtl hub
f 420 414 416
usemtl hub
f 419 417 415
usemtl hub
f 420 416 418
usemtl hub
f 419 379 417
usemtl hub
f 420 418 380
g wheel_rear_right
usemtl tire
f 421 423 424 422
usemtl tire
f 423 425 426 424
usemtl tire
f 425 427 428 426
usemtl tire
f 427 429 430 428
usemtl tire
f 429 431 432 430
usemtl tire
f 431 433 434 432
usemtl tire
f 433 435 436 434
usemtl tire
f 435 437 438 436
usemtl tire
f 437 439 440 438
usemtl tire
f 439 441 442 440
usemtl tire
f 441 443 444 442
usemtl tire
f 443 445 446 444
usemtl tire
f 445 447 448 446
usemtl tire
f 447 449 450 448
usemtl tire
f 449 451 452 450
usemtl tire
f 451 453 454 452
usemtl tire
f 453 455 456 454
usemtl tire
f 455 457 458 456
usemtl tire
f 457 459 460 458
usemtl tire
f 459 461 462 460
usemtl tire
f 461 463 464 462
usemtl tire
f 463 465 466 464
usemtl tire
f 465 467 468 466
usemtl tire
f 467 469 470 468
usemtl tire
f 469 471 472 470
usemtl tire
f 471 473 474 472
usemtl tire
f 473 475 476 474
usemtl tire
f 475 421 422 476
usemtl tire
f 477 423 421
usemtl tire
f 478 422 424
usemtl tire
f 477 425 423
usemtl tire
f 478 424 426
usemtl tire
f 477 427 425
usemtl tire
f 478 426 428
usemtl tire
f 477 429 427
usemtl tire
f 478 428 430
usemtl tire
f 477 431 429
usemtl tire
f 478 430 432
usemtl tire
f 477 433 431
usemtl tire
f 478 432 434
usemtl tire
f 477 435 433
usemtl tire
f 478 434 436
usemtl tire
f 477 437 435
usemtl tire
f 478 436 438
usemtl tire
f 477 439 437
usemtl tire
f 478 438 440
usemtl tire
f 477 441 439
usemtl tire
f 478 440 442
usemtl tire
f 477 443 441
usemtl tire
f 478 442 444
usemtl tire
f 477 445 443
usemtl tire
f 478 444 446
usemtl tire
f 477 447 445
usemtl tire
f 478 446 448
usemtl tire
f 477 449 447
usemtl tire
f 478 448 450
usemtl tire
f 477 451 449
usemtl tire
f 478 450 452
usemtl tire
f 477 453 451
usemtl tire
f 478 452 454
usemtl tire
f 477 455 453
usemtl tire
f 478 454 456
usemtl tire
f 477 457 455
usemtl tire
f 478 456 458
usemtl tire
f 477 459 457
usemtl tire
f 478 458 460
usemtl tire
f 477 461 459
usemtl tire
f 478 460 462
usemtl tire
f 477 463 461
usemtl tire
f 478 462 464
usemtl tire
f 477 465 463
usemtl tire
f 478 464 466
usemtl tire
f 477 467 465
usemtl tire
f 478 466 468
usemtl tire
f 477 469 467
usemtl tire
f 478 468 470
usemtl tire
f 477 471 469
usemtl tire
f 478 470 472
usemtl tire
f 477 473 471
usemtl tire
f 478 472 474
usemtl tire
f 477 475 473
usemtl tire
f 478 474 476
usemtl tire
f 477 421 475
usemtl tire
f 478 476 422
usemtl hub
f 479 481 482 480
usemtl hub
f 481 483 484 482
usemtl hub
f 483 485 486 484
usemtl hub
f 485 487 488 486
usemtl hub
f 487 489 490 488
usemtl hub
f 489 491 492 490
usemtl hub
f 491 493 494 492
usemtl hub
f 493 495 496 494
usemtl hub
f 495 497 498 496
usemtl hub
f 497 499 500 498
usemtl hub
f 499 501 502 500
usemtl hub
f 501 503 504 502
usemtl hub
f 503 505 506 504
usemtl hub
f 505 507 508 506
usemtl hub
f 507 509 510 508
usemtl hub
f 509 511 512 510
usemtl hub
f 511 513 514 512
usemtl hub
f 513 515 516 514
usemtl hub
f 515 517 518 516
usemtl hub
f 517 479 480 518
usemtl hub
f 519 481 479
usemtl hub
f 520 480 482
usemtl hub
f 519 483 481
usemtl hub
f 520 482 484
usemtl hub
f 519 485 483
usemtl hub
f 520 484 486
usemtl hub
f 519 487 485
usemtl hub
f 520 486 488
usemtl hub
f 519 489 487
usemtl hub
f 520 488 490
usemtl hub
f 519 491 489
usemtl hub
f 520 490 492
usemtl hub
f 519 493 491
usemtl hub
f 520 492 494
usemtl hub
f 519 495 493
usemtl hub
f 520 494 496
usemtl hub
f 519 497 495
usemtl hub
f 520 496 498
usemtl hub
f 519 499 497
usemtl hub
f 520 498 500
usemtl hub
f 519 501 499
usemtl hub
f 520 500 502
usemtl hub
f 519 503 501
usemtl hub
f 520 502 504
usemtl hub
f 519 505 503
usemtl hub
f 520 504 506
usemtl hub
f 519 507 505
usemtl hub
f 520 506 508
usemtl hub
f 519 509 507
usemtl hub
f 520 508 510
usemtl hub
f 519 511 509
usemtl hub
f 520 510 512
usemtl hub
f 519 513 511
usemtl hub
f 520 512 514
usemtl hub
f 519 515 513
usemtl hub
f 520 514 516
usemtl hub
f 519 517 515
usemtl hub
f 520 516 518
usemtl hub
f 519 479 517
usemtl hub
f 520 518 480
